<mxfile host="65bd71144e">
    <diagram id="C5RBs43oDa-KdzZeNtuy" name="Page-1">
        <mxGraphModel dx="683" dy="511" grid="1" gridSize="10" guides="1" tooltips="1" connect="1" arrows="1" fold="1" page="1" pageScale="1" pageWidth="827" pageHeight="1169" math="0" shadow="0">
            <root>
                <mxCell id="WIyWlLk6GJQsqaUBKTNV-0"/>
                <mxCell id="WIyWlLk6GJQsqaUBKTNV-1" parent="WIyWlLk6GJQsqaUBKTNV-0"/>
                <mxCell id="bYw96oUEijwgzpvKFYdk-2" style="edgeStyle=orthogonalEdgeStyle;rounded=0;orthogonalLoop=1;jettySize=auto;html=1;entryX=0;entryY=0.5;entryDx=0;entryDy=0;" parent="WIyWlLk6GJQsqaUBKTNV-1" source="bYw96oUEijwgzpvKFYdk-0" target="bYw96oUEijwgzpvKFYdk-1" edge="1">
                    <mxGeometry relative="1" as="geometry"/>
                </mxCell>
                <mxCell id="bYw96oUEijwgzpvKFYdk-0" value="Start" style="ellipse;whiteSpace=wrap;html=1;" parent="WIyWlLk6GJQsqaUBKTNV-1" vertex="1">
                    <mxGeometry x="40" y="120" width="120" height="80" as="geometry"/>
                </mxCell>
                <mxCell id="bYw96oUEijwgzpvKFYdk-5" style="edgeStyle=orthogonalEdgeStyle;rounded=0;orthogonalLoop=1;jettySize=auto;html=1;entryX=0;entryY=0.5;entryDx=0;entryDy=0;fontSize=18;" parent="WIyWlLk6GJQsqaUBKTNV-1" source="bYw96oUEijwgzpvKFYdk-1" edge="1">
                    <mxGeometry relative="1" as="geometry">
                        <mxPoint x="380" y="160" as="targetPoint"/>
                    </mxGeometry>
                </mxCell>
                <mxCell id="bYw96oUEijwgzpvKFYdk-1" value="&lt;div&gt;Input chocolate&lt;/div&gt;&lt;div&gt;bars sold&lt;br&gt;&lt;/div&gt;" style="shape=parallelogram;perimeter=parallelogramPerimeter;whiteSpace=wrap;html=1;fixedSize=1;" parent="WIyWlLk6GJQsqaUBKTNV-1" vertex="1">
                    <mxGeometry x="210" y="130" width="120" height="60" as="geometry"/>
                </mxCell>
                <mxCell id="bYw96oUEijwgzpvKFYdk-3" value="&lt;font style=&quot;font-size: 18px&quot;&gt;Chocolate Bar Sales Calculator&lt;/font&gt;" style="text;html=1;strokeColor=none;fillColor=none;align=center;verticalAlign=middle;whiteSpace=wrap;rounded=0;" parent="WIyWlLk6GJQsqaUBKTNV-1" vertex="1">
                    <mxGeometry x="240" y="40" width="320" height="30" as="geometry"/>
                </mxCell>
                <mxCell id="bYw96oUEijwgzpvKFYdk-6" style="edgeStyle=orthogonalEdgeStyle;rounded=0;orthogonalLoop=1;jettySize=auto;html=1;entryX=0;entryY=0.5;entryDx=0;entryDy=0;fontSize=18;" parent="WIyWlLk6GJQsqaUBKTNV-1" source="bYw96oUEijwgzpvKFYdk-7" edge="1">
                    <mxGeometry relative="1" as="geometry">
                        <mxPoint x="540" y="160" as="targetPoint"/>
                    </mxGeometry>
                </mxCell>
                <mxCell id="bYw96oUEijwgzpvKFYdk-7" value="&lt;div&gt;Input earnings&lt;/div&gt;&lt;div&gt;per bar&lt;br&gt;&lt;/div&gt;" style="shape=parallelogram;perimeter=parallelogramPerimeter;whiteSpace=wrap;html=1;fixedSize=1;" parent="WIyWlLk6GJQsqaUBKTNV-1" vertex="1">
                    <mxGeometry x="370" y="130" width="120" height="60" as="geometry"/>
                </mxCell>
                <mxCell id="bYw96oUEijwgzpvKFYdk-10" style="edgeStyle=orthogonalEdgeStyle;rounded=0;orthogonalLoop=1;jettySize=auto;html=1;entryX=0.5;entryY=0;entryDx=0;entryDy=0;fontSize=12;" parent="WIyWlLk6GJQsqaUBKTNV-1" source="bYw96oUEijwgzpvKFYdk-8" target="bYw96oUEijwgzpvKFYdk-9" edge="1">
                    <mxGeometry relative="1" as="geometry"/>
                </mxCell>
                <mxCell id="bYw96oUEijwgzpvKFYdk-8" value="&lt;div&gt;Multiply bars sold&lt;/div&gt;&lt;div&gt;times earnings to&lt;/div&gt;&lt;div&gt;get total earnings&lt;br&gt;&lt;/div&gt;" style="rounded=0;whiteSpace=wrap;html=1;fontSize=12;" parent="WIyWlLk6GJQsqaUBKTNV-1" vertex="1">
                    <mxGeometry x="540" y="130" width="120" height="60" as="geometry"/>
                </mxCell>
                <mxCell id="bYw96oUEijwgzpvKFYdk-12" style="edgeStyle=orthogonalEdgeStyle;rounded=0;orthogonalLoop=1;jettySize=auto;html=1;entryX=0.5;entryY=0;entryDx=0;entryDy=0;fontSize=12;" parent="WIyWlLk6GJQsqaUBKTNV-1" source="bYw96oUEijwgzpvKFYdk-9" target="bYw96oUEijwgzpvKFYdk-11" edge="1">
                    <mxGeometry relative="1" as="geometry"/>
                </mxCell>
                <mxCell id="bYw96oUEijwgzpvKFYdk-9" value="&lt;div&gt;Display&lt;/div&gt;&lt;div&gt;total earnings&lt;/div&gt;" style="shape=parallelogram;perimeter=parallelogramPerimeter;whiteSpace=wrap;html=1;fixedSize=1;fontSize=12;" parent="WIyWlLk6GJQsqaUBKTNV-1" vertex="1">
                    <mxGeometry x="540" y="250" width="120" height="60" as="geometry"/>
                </mxCell>
                <mxCell id="bYw96oUEijwgzpvKFYdk-11" value="End" style="ellipse;whiteSpace=wrap;html=1;fontSize=12;" parent="WIyWlLk6GJQsqaUBKTNV-1" vertex="1">
                    <mxGeometry x="540" y="360" width="120" height="80" as="geometry"/>
                </mxCell>
            </root>
        </mxGraphModel>
    </diagram>
</mxfile>